<svg width="182" height="68" viewBox="0 0 182 188" fill="none" xmlns="http://www.w3.org/2000/svg">
<g clip-path="url(#clip0_65_9)">
<path d="M134.423 0.594727H73.9063C65.5852 0.594727 58.8527 7.62728 58.8527 16.2226L58.777 141.246C58.777 149.841 65.5096 156.874 73.8306 156.874H164.682C173.003 156.874 179.811 149.841 179.811 141.246V47.4784L134.423 0.594727Z" fill="#3B84D8"/>
<path d="M102.418 105.977C97.9363 105.977 94.1077 104.374 90.9321 101.169C87.7546 97.9644 86.1658 94.0472 86.1658 89.4179C86.1658 85.4498 87.3232 81.9142 89.6379 78.811C91.9526 75.7078 94.9814 73.7238 98.7243 72.859C99.9555 68.1788 102.418 64.3888 106.112 61.4891C109.805 58.5894 113.991 57.1395 118.67 57.1395C124.432 57.1395 129.32 59.2121 133.332 63.3571C137.347 67.5042 139.355 72.5538 139.355 78.5058C142.753 78.9128 145.573 80.4257 147.815 83.0446C150.054 85.6655 151.174 88.7311 151.174 92.2413C151.174 96.0567 149.882 99.3003 147.297 101.972C144.711 104.642 141.571 105.977 137.877 105.977H102.418ZM113.794 95.5225C114.188 95.5225 114.558 95.4584 114.903 95.3302C115.247 95.2041 115.567 94.9884 115.863 94.6831L128.347 81.7871C128.938 81.1766 129.234 80.4389 129.234 79.5741C129.234 78.7093 128.938 77.9716 128.347 77.3612C127.756 76.7507 127.042 76.4455 126.205 76.4455C125.368 76.4455 124.654 76.7507 124.063 77.3612L113.721 88.0443L109.584 83.7711C109.042 83.2115 108.352 82.9317 107.515 82.9317C106.678 82.9317 105.988 83.2115 105.447 83.7711C104.856 84.3815 104.56 85.1192 104.56 85.984C104.56 86.8488 104.856 87.561 105.447 88.1206L111.726 94.6831C112.021 94.9884 112.342 95.2041 112.686 95.3302C113.031 95.4584 113.4 95.5225 113.794 95.5225Z" fill="white"/>
<path d="M135.218 0.976685L179.66 46.8837H137.218C136.113 46.8837 135.218 45.9882 135.218 44.8837V0.976685Z" fill="#78B2E4"/>
</g>
<defs>
<clipPath id="clip0_65_9">
<rect width="181.551" height="187.535" fill="white"/>
</clipPath>
</defs>
</svg>
