<svg width="current" height="current" viewBox="0 0 280 252" fill="none" xmlns="http://www.w3.org/2000/svg">
<path d="M0.107422 198.133H10.9414C13.223 198.133 15.1546 198.559 16.7363 199.413C18.318 200.253 19.5008 201.415 20.2847 202.899C21.0825 204.382 21.4814 206.083 21.4814 208.001C21.4814 209.904 21.0825 211.598 20.2847 213.082C19.5008 214.566 18.318 215.734 16.7363 216.588C15.1546 217.442 13.223 217.869 10.9414 217.869H4.72656V228.535H0.107422V198.133ZM10.4795 213.922C12.6211 213.922 14.2098 213.39 15.2456 212.326C16.2954 211.248 16.8203 209.806 16.8203 208.001C16.8203 206.181 16.3024 204.739 15.2666 203.676C14.2308 202.612 12.6351 202.08 10.4795 202.08H4.72656V213.922H10.4795ZM35.3389 228.997C33.2113 228.997 31.3426 228.507 29.7329 227.527C28.1232 226.547 26.8774 225.176 25.9956 223.412C25.1138 221.634 24.6729 219.577 24.6729 217.239C24.6729 214.887 25.1138 212.823 25.9956 211.045C26.8774 209.267 28.1232 207.889 29.7329 206.909C31.3426 205.929 33.2113 205.439 35.3389 205.439C37.4525 205.439 39.3141 205.929 40.9238 206.909C42.5335 207.889 43.7723 209.274 44.6401 211.066C45.522 212.844 45.9629 214.901 45.9629 217.239C45.9629 219.577 45.522 221.634 44.6401 223.412C43.7723 225.176 42.5335 226.547 40.9238 227.527C39.3141 228.507 37.4525 228.997 35.3389 228.997ZM35.3389 225.26C36.6686 225.26 37.7884 224.903 38.6982 224.189C39.6081 223.475 40.2869 222.516 40.7349 221.312C41.1968 220.094 41.4277 218.737 41.4277 217.239C41.4277 215.741 41.1968 214.384 40.7349 213.166C40.2869 211.934 39.6011 210.954 38.6772 210.226C37.7674 209.498 36.6546 209.135 35.3389 209.135C33.9951 209.135 32.8543 209.498 31.9165 210.226C30.9927 210.954 30.2998 211.934 29.8379 213.166C29.39 214.384 29.166 215.741 29.166 217.239C29.166 218.737 29.39 220.094 29.8379 221.312C30.2998 222.516 30.9927 223.475 31.9165 224.189C32.8543 224.903 33.9951 225.26 35.3389 225.26ZM61.0381 209.302H56.377V221.816C56.377 222.978 56.6149 223.776 57.0908 224.21C57.5807 224.63 58.2526 224.854 59.1064 224.882C59.4984 224.882 60.1143 224.854 60.9541 224.798C61.0381 224.77 61.1781 224.756 61.374 224.756V228.661C60.5342 228.773 59.5964 228.829 58.5605 228.829C57.3428 228.829 56.23 228.605 55.2222 228.157C54.2144 227.709 53.4095 227.03 52.8076 226.12C52.2057 225.197 51.9118 224.07 51.9258 222.74V209.302H48.5664V205.733H51.9258V200.274H56.377V205.733H61.0381V209.302ZM64.3555 222.11C64.3555 219.745 65.1533 218.058 66.749 217.05C68.3447 216.042 70.3883 215.447 72.8799 215.265C73.8317 215.195 74.8675 215.132 75.9873 215.076C77.1211 215.006 78.0799 214.957 78.8638 214.929L78.8428 213.124C78.8428 211.822 78.4508 210.821 77.667 210.121C76.8831 209.407 75.7354 209.051 74.2236 209.051C72.9499 209.051 71.9071 209.316 71.0952 209.848C70.2834 210.366 69.7585 211.066 69.5205 211.948H65.0693C65.2093 210.688 65.6782 209.568 66.4761 208.589C67.2739 207.595 68.3517 206.825 69.7095 206.279C71.0812 205.719 72.6419 205.439 74.3916 205.439C75.8333 205.439 77.2191 205.663 78.5488 206.111C79.8926 206.559 81.0264 207.371 81.9502 208.547C82.874 209.722 83.3359 211.332 83.3359 213.376V228.535H78.9688V225.427H78.8008C78.2829 226.435 77.457 227.289 76.3232 227.989C75.2035 228.689 73.7757 229.039 72.04 229.039C70.5843 229.039 69.2756 228.766 68.1138 228.22C66.952 227.674 66.0352 226.883 65.3633 225.847C64.6914 224.798 64.3555 223.552 64.3555 222.11ZM68.7227 222.152C68.7227 223.216 69.1146 224.035 69.8984 224.609C70.6963 225.183 71.7461 225.469 73.0479 225.469C74.2236 225.469 75.2524 225.239 76.1343 224.777C77.0161 224.301 77.695 223.671 78.1709 222.887C78.6468 222.089 78.8848 221.228 78.8848 220.304L78.8638 218.226L73.5098 218.583C71.984 218.695 70.8013 219.045 69.9614 219.633C69.1356 220.206 68.7227 221.046 68.7227 222.152ZM85.6875 198.133H109.245V202.122H99.7969V228.535H95.1777V202.122H85.6875V198.133ZM119.911 228.997C117.784 228.997 115.915 228.507 114.305 227.527C112.695 226.547 111.45 225.176 110.568 223.412C109.686 221.634 109.245 219.577 109.245 217.239C109.245 214.887 109.686 212.823 110.568 211.045C111.45 209.267 112.695 207.889 114.305 206.909C115.915 205.929 117.784 205.439 119.911 205.439C122.025 205.439 123.886 205.929 125.496 206.909C127.106 207.889 128.345 209.274 129.212 211.066C130.094 212.844 130.535 214.901 130.535 217.239C130.535 219.577 130.094 221.634 129.212 223.412C128.345 225.176 127.106 226.547 125.496 227.527C123.886 228.507 122.025 228.997 119.911 228.997ZM119.911 225.26C121.241 225.26 122.361 224.903 123.271 224.189C124.18 223.475 124.859 222.516 125.307 221.312C125.769 220.094 126 218.737 126 217.239C126 215.741 125.769 214.384 125.307 213.166C124.859 211.934 124.173 210.954 123.25 210.226C122.34 209.498 121.227 209.135 119.911 209.135C118.567 209.135 117.427 209.498 116.489 210.226C115.565 210.954 114.872 211.934 114.41 213.166C113.962 214.384 113.738 215.741 113.738 217.239C113.738 218.737 113.962 220.094 114.41 221.312C114.872 222.516 115.565 223.475 116.489 224.189C117.427 224.903 118.567 225.26 119.911 225.26ZM139.438 228.535H134.944V205.733H139.27V209.47H139.521C140.081 208.211 140.928 207.224 142.062 206.51C143.196 205.796 144.589 205.439 146.24 205.439C147.822 205.439 149.194 205.768 150.355 206.426C151.517 207.07 152.413 208.036 153.043 209.323C153.687 210.611 154.009 212.186 154.009 214.048V228.535H149.558V214.594C149.558 212.942 149.131 211.647 148.277 210.709C147.423 209.771 146.24 209.302 144.729 209.302C143.707 209.302 142.79 209.526 141.978 209.974C141.18 210.422 140.557 211.08 140.109 211.948C139.661 212.802 139.438 213.824 139.438 215.013V228.535ZM159.468 205.733H163.961V228.535H159.468V205.733ZM161.735 202.206C161.231 202.206 160.756 202.087 160.308 201.849C159.874 201.611 159.524 201.289 159.258 200.883C159.006 200.477 158.88 200.036 158.88 199.56C158.88 199.084 159.006 198.643 159.258 198.238C159.524 197.832 159.874 197.51 160.308 197.272C160.756 197.034 161.231 196.915 161.735 196.915C162.239 196.915 162.701 197.034 163.121 197.272C163.555 197.51 163.898 197.832 164.15 198.238C164.416 198.643 164.549 199.084 164.549 199.56C164.549 200.036 164.416 200.477 164.15 200.883C163.898 201.289 163.555 201.611 163.121 201.849C162.701 202.087 162.239 202.206 161.735 202.206Z" fill="#323539"/>
<path d="M179.274 200.961H196.375V204.579H183.464V212.92H195.156V216.5H183.464V228.535H179.274V200.961ZM207.953 228.954C206.023 228.954 204.329 228.51 202.869 227.621C201.409 226.732 200.279 225.488 199.479 223.888C198.679 222.276 198.279 220.41 198.279 218.29C198.279 216.157 198.679 214.284 199.479 212.672C200.279 211.06 201.409 209.809 202.869 208.921C204.329 208.032 206.023 207.588 207.953 207.588C209.87 207.588 211.559 208.032 213.019 208.921C214.479 209.809 215.602 211.066 216.389 212.691C217.189 214.303 217.589 216.17 217.589 218.29C217.589 220.41 217.189 222.276 216.389 223.888C215.602 225.488 214.479 226.732 213.019 227.621C211.559 228.51 209.87 228.954 207.953 228.954ZM207.953 225.564C209.159 225.564 210.175 225.24 211 224.593C211.825 223.946 212.441 223.076 212.847 221.984C213.266 220.88 213.476 219.648 213.476 218.29C213.476 216.931 213.266 215.7 212.847 214.595C212.441 213.478 211.819 212.59 210.981 211.929C210.156 211.269 209.146 210.939 207.953 210.939C206.734 210.939 205.7 211.269 204.849 211.929C204.011 212.59 203.383 213.478 202.964 214.595C202.558 215.7 202.354 216.931 202.354 218.29C202.354 219.648 202.558 220.88 202.964 221.984C203.383 223.076 204.011 223.946 204.849 224.593C205.7 225.24 206.734 225.564 207.953 225.564ZM221.588 207.854H225.511V211.13H225.739C226.12 210.025 226.787 209.156 227.739 208.521C228.691 207.873 229.776 207.55 230.995 207.55C231.579 207.55 232.15 207.575 232.709 207.626V211.51C232.48 211.46 232.157 211.409 231.738 211.358C231.332 211.307 230.944 211.282 230.576 211.282C229.649 211.282 228.812 211.485 228.062 211.891C227.313 212.285 226.723 212.837 226.292 213.548C225.873 214.246 225.663 215.04 225.663 215.928V228.535H221.588V207.854ZM235.756 207.854H239.679V211.244H239.907C240.352 210.076 241.056 209.175 242.021 208.54C242.999 207.905 244.173 207.588 245.544 207.588C246.902 207.588 248.058 207.911 249.01 208.559C249.962 209.194 250.66 210.089 251.104 211.244H251.333C251.841 210.101 252.628 209.206 253.694 208.559C254.773 207.911 256.056 207.588 257.541 207.588C258.811 207.588 259.921 207.854 260.874 208.387C261.838 208.921 262.587 209.72 263.121 210.787C263.667 211.841 263.939 213.135 263.939 214.672V228.535H259.864V215.052C259.864 213.732 259.502 212.742 258.779 212.082C258.055 211.422 257.122 211.092 255.979 211.092C255.129 211.092 254.393 211.276 253.771 211.644C253.148 211.999 252.672 212.501 252.342 213.148C252.025 213.796 251.866 214.532 251.866 215.357V228.535H247.829V214.824C247.829 214.088 247.67 213.44 247.353 212.882C247.036 212.31 246.591 211.872 246.02 211.568C245.449 211.25 244.795 211.092 244.059 211.092C243.297 211.092 242.592 211.295 241.945 211.701C241.297 212.094 240.783 212.647 240.402 213.358C240.021 214.069 239.831 214.875 239.831 215.776V228.535H235.756V207.854Z" fill="#3B84D8"/>
<g clip-path="url(#clip0_35_10)">
<path d="M142.226 0.594727H81.709C73.3879 0.594727 66.6554 7.62728 66.6554 16.2226L66.5797 141.246C66.5797 149.841 73.3122 156.874 81.6333 156.874H172.484C180.806 156.874 187.614 149.841 187.614 141.246V47.4784L142.226 0.594727Z" fill="#3B84D8"/>
<path d="M110.221 105.977C105.739 105.977 101.91 104.374 98.7349 101.169C95.5574 97.9643 93.9686 94.0471 93.9686 89.4177C93.9686 85.4497 95.126 81.9141 97.4407 78.8109C99.7554 75.7077 102.784 73.7237 106.527 72.8589C107.758 68.1786 110.221 64.3887 113.914 61.489C117.608 58.5893 121.794 57.1394 126.473 57.1394C132.235 57.1394 137.122 59.2119 141.135 63.357C145.15 67.5041 147.157 72.5536 147.157 78.5057C150.556 78.9127 153.376 80.4256 155.617 83.0445C157.857 85.6654 158.977 88.731 158.977 92.2411C158.977 96.0566 157.685 99.3002 155.1 101.972C152.514 104.642 149.374 105.977 145.68 105.977H110.221ZM121.597 95.5224C121.991 95.5224 122.361 95.4583 122.705 95.3301C123.05 95.2039 123.37 94.9882 123.666 94.683L136.15 81.7869C136.741 81.1765 137.037 80.4388 137.037 79.574C137.037 78.7092 136.741 77.9715 136.15 77.3611C135.559 76.7506 134.845 76.4454 134.008 76.4454C133.171 76.4454 132.457 76.7506 131.866 77.3611L121.523 88.0442L117.386 83.7709C116.845 83.2114 116.155 82.9316 115.318 82.9316C114.481 82.9316 113.791 83.2114 113.25 83.7709C112.659 84.3814 112.363 85.1191 112.363 85.9839C112.363 86.8487 112.659 87.5609 113.25 88.1205L119.529 94.683C119.824 94.9882 120.144 95.2039 120.489 95.3301C120.834 95.4583 121.203 95.5224 121.597 95.5224Z" fill="white"/>
<path d="M143.021 0.976807L187.463 46.8838H145.021C143.916 46.8838 143.021 45.9883 143.021 44.8838V0.976807Z" fill="#78B2E4"/>
</g>
<defs>
<clipPath id="clip0_35_10">
<rect width="181.551" height="187.535" fill="white" transform="translate(7.80273)"/>
</clipPath>
</defs>
</svg>
