<svg width="200" height="68" viewBox="0 0 213 96" fill="none" xmlns="http://www.w3.org/2000/svg">
<path d="M105.023 75V55.2031H112.078C116.672 55.2031 118.941 57.9648 118.941 61.6289C118.941 65.2656 116.672 68.0547 112.078 68.0547H108.031V75H105.023ZM108.031 65.4844H111.777C114.703 65.4844 115.906 63.8438 115.906 61.6289C115.906 59.3867 114.703 57.7734 111.777 57.7734H108.031V65.4844ZM127.965 75.3008C123.754 75.3008 121.02 72.2383 121.02 67.6445C121.02 63.0234 123.754 59.9609 127.965 59.9609C132.148 59.9609 134.883 63.0234 134.883 67.6445C134.883 72.2383 132.148 75.3008 127.965 75.3008ZM127.965 72.8672C130.645 72.8672 131.93 70.4883 131.93 67.6445C131.93 64.8008 130.645 62.3672 127.965 62.3672C125.23 62.3672 123.945 64.8008 123.945 67.6445C123.945 70.4883 125.23 72.8672 127.965 72.8672ZM144.699 60.1523V62.4766H141.664V70.625C141.664 72.293 142.512 72.5938 143.441 72.6211C143.852 72.6211 144.508 72.5664 144.918 72.5391V75.082C144.508 75.1367 143.879 75.1914 143.086 75.1914C140.789 75.1914 138.738 73.9336 138.766 71.2266V62.4766H136.578V60.1523H138.766V56.5977H141.664V60.1523H144.699ZM146.859 70.8164C146.859 67.4258 149.73 66.5508 152.41 66.3594C153.395 66.291 155.623 66.168 156.32 66.1406L156.293 64.9648C156.293 63.2969 155.281 62.3125 153.285 62.3125C151.562 62.3125 150.523 63.1055 150.223 64.1992H147.324C147.598 61.7383 149.895 59.9609 153.395 59.9609C155.746 59.9609 159.219 60.8359 159.219 65.1289V75H156.375V72.9766H156.266C155.691 74.0977 154.324 75.3281 151.863 75.3281C149.047 75.3281 146.859 73.7148 146.859 70.8164ZM149.703 70.8438C149.703 72.2656 150.879 73.0039 152.52 73.0039C154.898 73.0039 156.32 71.418 156.32 69.6406V68.2734L152.82 68.5195C150.906 68.6562 149.703 69.3672 149.703 70.8438ZM160.75 57.8008V55.2031H176.09V57.8008H169.938V75H166.93V57.8008H160.75ZM183.035 75.3008C178.824 75.3008 176.09 72.2383 176.09 67.6445C176.09 63.0234 178.824 59.9609 183.035 59.9609C187.219 59.9609 189.953 63.0234 189.953 67.6445C189.953 72.2383 187.219 75.3008 183.035 75.3008ZM183.035 72.8672C185.715 72.8672 187 70.4883 187 67.6445C187 64.8008 185.715 62.3672 183.035 62.3672C180.301 62.3672 179.016 64.8008 179.016 67.6445C179.016 70.4883 180.301 72.8672 183.035 72.8672ZM195.75 66.1953V75H192.824V60.1523H195.641V62.5859H195.805C196.516 61 197.965 59.9609 200.18 59.9609C203.242 59.9609 205.238 61.875 205.238 65.5664V75H202.34V65.9219C202.34 63.7617 201.164 62.4766 199.195 62.4766C197.199 62.4766 195.75 63.8164 195.75 66.1953ZM208.793 75V60.1523H211.719V75H208.793ZM210.27 57.8555C209.258 57.8555 208.41 57.0898 208.41 56.1328C208.41 55.1758 209.258 54.4102 210.27 54.4102C211.254 54.4102 212.102 55.1758 212.102 56.1328C212.102 57.0898 211.254 57.8555 210.27 57.8555Z" fill="#323539"/>
<path d="M109.1 49V31.3242H119.427V32.8867H110.833V39.3809H118.621V40.9189H110.833V49H109.1ZM128.123 49.2686C124.656 49.2686 122.239 46.4854 122.239 42.4326C122.239 38.3555 124.656 35.5479 128.123 35.5479C131.59 35.5479 133.982 38.3555 133.982 42.4326C133.982 46.4854 131.59 49.2686 128.123 49.2686ZM128.123 47.7793C130.833 47.7793 132.322 45.3379 132.322 42.4326C132.322 39.5273 130.833 37.0615 128.123 37.0615C125.389 37.0615 123.899 39.5273 123.899 42.4326C123.899 45.3379 125.389 47.7793 128.123 47.7793ZM138.138 49V35.7432H139.749V37.7939H139.871C140.408 36.4512 141.824 35.5479 143.46 35.5479C143.729 35.5479 144.119 35.5479 144.314 35.5723V37.2568C144.168 37.2324 143.777 37.1592 143.338 37.1592C141.312 37.1592 139.822 38.5508 139.822 40.4795V49H138.138ZM147.737 49V35.7432H149.349V37.7939H149.495C150.032 36.4023 151.326 35.5723 153.06 35.5723C154.866 35.5723 156.062 36.4756 156.648 37.9648H156.746C157.356 36.5 158.748 35.5723 160.677 35.5723C163.143 35.5723 164.705 37.1348 164.705 40.1133V49H163.021V40.1377C163.021 38.0869 161.873 37.0859 160.164 37.0859C158.187 37.0859 157.063 38.4287 157.063 40.3086V49H155.379V39.9912C155.379 38.2578 154.329 37.0859 152.571 37.0859C150.765 37.0859 149.422 38.502 149.422 40.5527V49H147.737Z" fill="#78B2E4"/>
<g clip-path="url(#clip0_23_13)">
<path d="M71.0798 0.304443H39.0798C34.6798 0.304443 31.1198 3.90444 31.1198 8.30444L31.0798 72.3044C31.0798 76.7044 34.6398 80.3044 39.0398 80.3044H87.0798C91.4798 80.3044 95.0798 76.7044 95.0798 72.3044V24.3044L71.0798 0.304443Z" fill="#3B84D8"/>
<path d="M54.1562 55.25C51.7865 55.25 49.762 54.4297 48.0828 52.7891C46.4026 51.1484 45.5625 49.1432 45.5625 46.7734C45.5625 44.7422 46.1745 42.9323 47.3984 41.3438C48.6224 39.7552 50.224 38.7396 52.2031 38.2969C52.8542 35.901 54.1562 33.9609 56.1094 32.4766C58.0625 30.9922 60.276 30.25 62.75 30.25C65.7969 30.25 68.3813 31.3109 70.5031 33.4328C72.626 35.5557 73.6875 38.1406 73.6875 41.1875C75.4844 41.3958 76.9755 42.1703 78.1609 43.5109C79.3453 44.8526 79.9375 46.4219 79.9375 48.2188C79.9375 50.1719 79.2542 51.8323 77.8875 53.2C76.5198 54.5667 74.8594 55.25 72.9062 55.25H54.1562ZM60.1719 49.8984C60.3802 49.8984 60.5755 49.8656 60.7578 49.8C60.9401 49.7354 61.1094 49.625 61.2656 49.4687L67.8672 42.8672C68.1797 42.5547 68.3359 42.1771 68.3359 41.7344C68.3359 41.2917 68.1797 40.9141 67.8672 40.6016C67.5547 40.2891 67.1771 40.1328 66.7344 40.1328C66.2917 40.1328 65.9141 40.2891 65.6016 40.6016L60.1328 46.0703L57.9453 43.8828C57.6589 43.5964 57.2943 43.4531 56.8516 43.4531C56.4089 43.4531 56.0443 43.5964 55.7578 43.8828C55.4453 44.1953 55.2891 44.5729 55.2891 45.0156C55.2891 45.4583 55.4453 45.8229 55.7578 46.1094L59.0781 49.4687C59.2344 49.625 59.4036 49.7354 59.5859 49.8C59.7682 49.8656 59.9635 49.8984 60.1719 49.8984Z" fill="white"/>
<path d="M71.5 0.5L95 24H73.5C72.3954 24 71.5 23.1046 71.5 22V0.5Z" fill="#78B2E4"/>
</g>
<defs>
<clipPath id="clip0_23_13">
<rect width="96" height="96" fill="white"/>
</clipPath>
</defs>
</svg>
